<svg xmlns="http://www.w3.org/2000/svg" width="577.768" height="552.956" viewBox="0 0 577.768 552.956">
  <g id="_3_Budget_img" data-name="#3 Budget img" transform="translate(-118.266)">
    <path id="Path_703" data-name="Path 703" d="M907.358,168.541A175.519,175.519,0,0,0,786.515,113.5V289.383Z" transform="translate(-259.542 -113.5)" fill="#3f3d56"/>
    <path id="Path_704" data-name="Path 704" d="M907.358,201.87,786.515,322.713H955.4A175.425,175.425,0,0,0,907.358,201.87Z" transform="translate(-259.542 -124.93)" fill="#e4e4e4"/>
    <path id="Path_705" data-name="Path 705" d="M955.576,355.18a176.5,176.5,0,0,1-3.03,32.676c-.157.853-.322,1.7-.5,2.542a174.608,174.608,0,0,1-20.373,53.389c-.514.888-1.045,1.776-1.576,2.647v.009a176.583,176.583,0,0,1-35.349,41.818c-.688.6-1.376,1.193-2.072,1.776A175.271,175.271,0,0,1,786.51,531.063V355.18Z" transform="translate(-259.541 -144.758)" fill="#bdf5ed"/>
    <path id="Path_706" data-name="Path 706" d="M748.927,531.216c2.338,0,4.661-.06,6.977-.15V355.175L627.99,483.09a175.428,175.428,0,0,0,120.937,48.126Z" transform="translate(-239.039 -144.758)" fill="#ffe2d5"/>
    <path id="Path_707" data-name="Path 707" d="M741.016,138.473a176.04,176.04,0,0,0-176.04,176.04h183.2V138.63C745.8,138.535,743.415,138.473,741.016,138.473Z" transform="translate(-230.889 -116.73)" fill="#ffe2d5"/>
    <path id="Path_708" data-name="Path 708" d="M691.742,355.18,654.73,392.192l-1.21,1.21-.026.026-32.275,32.267-1.227,1.228-34.87,34.87-1.228,1.228v.009l-20.069,20.06a175.533,175.533,0,0,1-55.1-127.909Z" transform="translate(-223.613 -144.758)" fill="#23d8bd"/>
    <circle id="Ellipse_180" data-name="Ellipse 180" cx="13.931" cy="13.931" r="13.931" transform="translate(663.863 403.988)" fill="#f0f0f0"/>
    <circle id="Ellipse_181" data-name="Ellipse 181" cx="13.931" cy="13.931" r="13.931" transform="translate(325.175 11.319)" fill="#f0f0f0"/>
    <g id="Group_205" data-name="Group 205">
      <path id="Path_709" data-name="Path 709" d="M386.678,525.009a10.775,10.775,0,0,0,2.5-16.332l1.453-79.175-17.352,1.454.041,77.188a10.834,10.834,0,0,0,13.36,16.866Z" transform="translate(-205.692 -187.37)" fill="#ffb6b6"/>
      <path id="Path_4798" data-name="Path 4798" d="M392.834,445.654,370.14,443.49a4.514,4.514,0,0,1-3.954-5.575l5.45-22.064a12.535,12.535,0,1,1,24.95,2.453l1.183,22.623a4.514,4.514,0,0,1-4.936,4.728Z" transform="translate(-205.161 -174.438)" fill="#6c63fc"/>
      <path id="Path_711" data-name="Path 711" d="M172.2,657.248h8.805l4.189-33.964h-13Z" transform="translate(-22.271 -113.613)" fill="#ffb6b6"/>
      <path id="Path_712" data-name="Path 712" d="M350.881,772.491h17.342a11.052,11.052,0,0,1,11.051,11.05v.36H350.882Z" transform="translate(-203.198 -231.731)" fill="#2f2e41"/>
      <path id="Path_713" data-name="Path 713" d="M265.416,657.248h8.806l4.189-33.964h-13Z" transform="translate(-34.328 -113.613)" fill="#ffb6b6"/>
      <path id="Path_714" data-name="Path 714" d="M444.1,772.491h17.342a11.052,11.052,0,0,1,11.051,11.05v.36H444.1Z" transform="translate(-215.254 -231.731)" fill="#2f2e41"/>
      <path id="Path_715" data-name="Path 715" d="M245.951,348.908l5.745,36.63-54.585.718,7.182-35.193Z" transform="translate(-25.494 -78.126)" fill="#ffb6b6"/>
      <path id="Path_716" data-name="Path 716" d="M427.8,494.206c17.32,30.17,18.8,132.471,19.54,238.131H432.614L397.421,578.2,365.1,728.314H350.736l10.055-168.783s-2.965-33.877,12.21-53.867l3.694-10.671Z" transform="translate(-203.179 -195.739)" fill="#2f2e41"/>
      <path id="Path_717" data-name="Path 717" d="M386.718,473.652a4.89,4.89,0,0,1-.949-.094h0a4.908,4.908,0,0,1-3.932-4.447c-.54-7.392-3.215-20.26-7.952-38.247a30.271,30.271,0,0,1,47.8-31.609,29.88,29.88,0,0,1,11.528,20.434c2.354,20.73-2.084,41.544-4.1,49.53a4.919,4.919,0,0,1-4.663,3.706l-37.627.726Z" transform="translate(-206.046 -182.641)" fill="#6c63fc"/>
      <path id="Path_718" data-name="Path 718" d="M499.03,408.346a10.564,10.564,0,0,0-.555,1.567l-47.1,16-9.1-7.95-13.794,12.166,14.743,15.64a8.024,8.024,0,0,0,9.489,1.642l50.4-25.743a10.529,10.529,0,1,0-4.082-13.326Z" transform="translate(-213.235 -183.835)" fill="#ffb6b6"/>
      <path id="Path_719" data-name="Path 719" d="M447.055,426.611l-17.169,15a4.514,4.514,0,0,1-6.767-.96l-12.281-19.124a12.535,12.535,0,0,1,18.93-16.437l17.245,14.69a4.514,4.514,0,0,1,.041,6.835Z" transform="translate(-210.556 -183.654)" fill="#6c63fc"/>
      <circle id="Ellipse_179" data-name="Ellipse 179" cx="23.08" cy="23.08" r="23.08" transform="translate(161.864 191.75) rotate(-61.337)" fill="#ffb6b6"/>
      <path id="Path_720" data-name="Path 720" d="M405.191,324.243h-4.68a23.142,23.142,0,0,0-6.941-1.056q-.582,0-1.157.028A21.292,21.292,0,0,0,373.3,338.537c-5.233,17.468-2.973,36.8-2.973,36.8,7.638,3.455,19.312,6.011,36.553,3.909l2.535-10.628-.211,10.311q3.645-.507,7.607-1.31V354.88h10.564C427.376,337.955,422.115,324.243,405.191,324.243Z" transform="translate(-205.651 -173.62)" fill="#2f2e41"/>
      <path id="Path_723" data-name="Path 723" d="M396.458,785.371a1.152,1.152,0,0,1-.164.617.486.486,0,0,1-.4.254H181.822c-.31,0-.562-.39-.562-.871s.252-.871.562-.871H395.9a.486.486,0,0,1,.4.254,1.153,1.153,0,0,1,.164.617Z" transform="translate(-62.994 -233.285)" fill="#3f3d56"/>
    </g>
    <path id="Path_724" data-name="Path 724" d="M588.05,463.018a159.579,159.579,0,0,1-47.189-107.785l3.481-.125a156.107,156.107,0,0,0,46.163,105.44Z" transform="translate(-227.77 -144.749)" fill="#3f3d56"/>
    <path id="Path_725" data-name="Path 725" d="M631.744,425.73l-2.525,2.386a160.115,160.115,0,0,1-39.389-72.526l1.689-.409h1.793a156.711,156.711,0,0,0,38.4,70.515Z" transform="translate(-234.103 -144.758)" fill="#3f3d56"/>
    <path id="Path_726" data-name="Path 726" d="M672.581,392.314l-1.306,1.088-.026.026-1.34,1.114A160,160,0,0,1,646,355.876l1.593-.7H649.5a156.351,156.351,0,0,0,22.985,37.012,1.14,1.14,0,0,0,.1.122Z" transform="translate(-241.368 -144.758)" fill="#3f3d56"/>
  </g>
</svg>
