<svg xmlns="http://www.w3.org/2000/svg" width="735.716" height="364.829" viewBox="0 0 735.716 364.829">
  <g id="_4_Delivery_img" data-name="#4 Delivery img" transform="translate(-25.647)">
    <g id="Group_206" data-name="Group 206" transform="translate(18.032)">
      <path id="Path_618" data-name="Path 618" d="M432.13,567.974c-2.85,22.33-13.33,42.76-24.51,62.44-.37.67-.75,1.33-1.14,2H290.28c-2.35-.61-4.67-1.28-6.98-2a127.026,127.026,0,0,1-36.69-18.05c-42.75-30.8-59.2-89-51.77-141.15,4.62-32.4,18.84-65.48,46.53-82.93,14.62-9.23,33.4-12.23,50.23-8.8.44.08.88.18,1.33.27,14.48,3.26,27.38,11.36,34.72,24.41,13.2,23.45,5.34,52.5-1.15,78.6-6.47,26.1-9.98,57.34,8.8,76.59-6.2-18.25-.08-40.02,14.73-52.36,11.19-9.31,26.77-12.8,40.98-9.91,1.36.29,2.7.62,4.02,1.02a44.6,44.6,0,0,1,9.17,3.84C426.35,514.315,435.32,542.8,432.13,567.974Z" transform="translate(-185.5 -267.585)" fill="#6c63fc" opacity="0.299"/>
      <path id="Path_619" data-name="Path 619" d="M363.23,630.414c3.22.75,6.45,1.41,9.7,2H355.36c-2.3-.62-4.59-1.28-6.86-2q-7.485-2.34-14.74-5.37c-19.4-8.14-37.27-20.36-50.79-36.62a103.371,103.371,0,0,1-16.02-26.17,118.858,118.858,0,0,1-8.2-33.49c-2.45-23.6.05-47.85,4.72-71.03a296.452,296.452,0,0,1,23.16-69.47q1.9-3.975,3.94-7.9a1.542,1.542,0,0,1,1.03-.88,1.778,1.778,0,0,1,1.33.27,2.106,2.106,0,0,1,.83,2.78,293.04,293.04,0,0,0-24.58,66.96c-5.32,22.67-8.34,46.39-7.31,69.7.98,21.78,6.67,43.2,19.58,61.01,11.79,16.26,28.07,29.08,46.08,37.81a169.128,169.128,0,0,0,35.7,12.4Z" transform="translate(-185.5 -267.585)" fill="#fff"/>
      <path id="Path_620" data-name="Path 620" d="M401.79,632.414h-5.18c-.58-.66-1.14-1.33-1.69-2a110.411,110.411,0,0,1-23.24-49.66,107.734,107.734,0,0,1,9.29-67.05,110.237,110.237,0,0,1,10.04-16.62c1.36.29,2.7.62,4.02,1.02A104.214,104.214,0,0,0,400,630.414C400.58,631.084,401.18,631.755,401.79,632.414Z" transform="translate(-185.5 -267.585)" fill="#fff"/>
    </g>
    <g id="Group_207" data-name="Group 207">
      <path id="Path_621" data-name="Path 621" d="M868.429,615.408c.752,5.893,3.518,11.285,6.469,16.479.1.177.2.351.3.528h30.667c.62-.161,1.232-.338,1.842-.528a33.522,33.522,0,0,0,9.683-4.764c11.282-8.129,15.624-23.489,13.663-37.252-1.219-8.551-4.972-17.281-12.28-21.887a18.437,18.437,0,0,0-13.257-2.323c-.116.021-.232.047-.351.071A13.68,13.68,0,0,0,896,572.175c-3.484,6.189-1.409,13.856.3,20.744s2.634,15.133-2.322,20.214a12.644,12.644,0,0,0-14.7-16.434c-.359.077-.713.164-1.061.269a11.768,11.768,0,0,0-2.42,1.013C869.955,601.246,867.587,608.765,868.429,615.408Z" transform="translate(-185.5 -267.585)" fill="#d0d0fe"/>
      <path id="Path_622" data-name="Path 622" d="M886.613,631.887c-.85.2-1.7.372-2.56.528h4.637c.607-.164,1.211-.338,1.81-.528q1.976-.618,3.89-1.417a34.9,34.9,0,0,0,13.4-9.665,27.28,27.28,0,0,0,4.228-6.907,31.366,31.366,0,0,0,2.164-8.839,62.859,62.859,0,0,0-1.246-18.746,78.24,78.24,0,0,0-6.112-18.334q-.5-1.049-1.04-2.085a.407.407,0,0,0-.272-.232.469.469,0,0,0-.351.071.556.556,0,0,0-.219.734,77.338,77.338,0,0,1,6.487,17.672,68.024,68.024,0,0,1,1.929,18.4,29.351,29.351,0,0,1-5.167,16.1,32.485,32.485,0,0,1-12.161,9.979,44.637,44.637,0,0,1-9.422,3.272Z" transform="translate(-185.5 -267.585)" fill="#fff"/>
      <path id="Path_623" data-name="Path 623" d="M876.437,632.415H877.8c.153-.174.3-.351.446-.528a29.139,29.139,0,0,0,6.134-13.106,28.433,28.433,0,0,0-2.452-17.7,29.094,29.094,0,0,0-2.65-4.386c-.359.077-.713.164-1.061.269a27.5,27.5,0,0,1-1.312,34.919C876.756,632.064,876.6,632.24,876.437,632.415Z" transform="translate(-185.5 -267.585)" fill="#fff"/>
    </g>
    <path id="Path_624" data-name="Path 624" d="M592.01,480.094H496.029l-1.018-29.511a8.86,8.86,0,0,1,9.931-9.1l55.854,6.839h.007a31.291,31.291,0,0,1,31.206,31.27Z" transform="translate(-185.5 -267.585)" fill="#636089"/>
    <path id="Path_625" data-name="Path 625" d="M549.231,375.414H482.289a6.777,6.777,0,0,0-6.779,6.779v66.942a6.777,6.777,0,0,0,6.779,6.779h66.942a6.777,6.777,0,0,0,6.779-6.779V382.193a6.777,6.777,0,0,0-6.779-6.779Z" transform="translate(-185.5 -267.585)" fill="#ccc"/>
    <path id="Path_626" data-name="Path 626" d="M534.154,425.471l-31.606,6.155a7.211,7.211,0,0,1-8.447-5.693l-2.43-12.476a7.211,7.211,0,0,1,5.693-8.447l31.606-6.155a7.211,7.211,0,0,1,8.447,5.693l2.43,12.476A7.211,7.211,0,0,1,534.154,425.471Z" transform="translate(-185.5 -267.585)" fill="#3f3d56"/>
    <path id="Path_627" data-name="Path 627" d="M527.831,410.732l-24.121,4.7a1.695,1.695,0,0,1-.648-3.327l24.121-4.7a1.695,1.695,0,1,1,.648,3.327Z" transform="translate(-185.5 -267.585)" fill="#fff"/>
    <path id="Path_628" data-name="Path 628" d="M523.143,417.688l-12.476,2.43a1.695,1.695,0,1,1-.648-3.327l12.476-2.43a1.695,1.695,0,1,1,.648,3.327Z" transform="translate(-185.5 -267.585)" fill="#fff"/>
    <path id="Path_629" data-name="Path 629" d="M556.01,382.193v8.9h-80.5v-8.9a6.777,6.777,0,0,1,6.779-6.779h66.942a6.777,6.777,0,0,1,6.779,6.779Z" transform="translate(-185.5 -267.585)" fill="#b3b3b3"/>
    <path id="Path_630" data-name="Path 630" d="M716.76,393.877a10.743,10.743,0,0,0-15.193-6.365l-92.1-33.043-4.056,23.007,91.8,25.245a10.8,10.8,0,0,0,19.543-8.845Z" transform="translate(-185.5 -267.585)" fill="#ffb8b8"/>
    <path id="Path_631" data-name="Path 631" d="M716.76,393.877a10.743,10.743,0,0,0-15.193-6.365l-92.1-33.043-4.056,23.007,91.8,25.245a10.8,10.8,0,0,0,19.543-8.845Z" transform="translate(-185.5 -267.585)" opacity="0.2"/>
    <path id="Path_632" data-name="Path 632" d="M625.817,358.662l-8.7,22.72a4.817,4.817,0,0,1-6.861,2.476l-21.136-11.9A13.377,13.377,0,0,1,598.761,347l23.6,5.235a4.817,4.817,0,0,1,3.454,6.424Z" transform="translate(-185.5 -267.585)" fill="#23d8bd"/>
    <path id="Path_633" data-name="Path 633" d="M724.01,414.914l-33,15,4.333,16.311a253.734,253.734,0,0,1,6.54,96.65h0l24.128,5.039,20-51-7-58Z" transform="translate(-185.5 -267.585)" fill="#636089"/>
    <path id="Path_634" data-name="Path 634" d="M788.76,490.414c-21.682,0-39.352,15.762-40.209,35.5h80.418C828.111,506.176,810.442,490.414,788.76,490.414Z" transform="translate(-185.5 -267.585)" fill="#3f3d56"/>
    <path id="Path_635" data-name="Path 635" d="M771.881,493.816c-1.128-89.1-51.872-80.9-51.872-80.9s.949,27.733,1.405,28.6c32.335,61.18-21.03,132.9-88.96,119.709q-1.921-.373-3.691-.757A34.581,34.581,0,0,1,601.6,521.7c6.692-53.736-26.591-52.785-26.591-52.785H526.343L501.07,446.169a7.347,7.347,0,0,0-11.809,2.921l-3.251,8.825s-48,5-44,52h14.84a29.972,29.972,0,0,0,.16,4l110.751-.9c6.492-.053,12.222,5.208,12.249,11.7a11.753,11.753,0,0,1-12.144,11.8l-17.855-.6c-5.5,24.5,8,41,22.875,51.375A83.148,83.148,0,0,0,620.5,601.915H669.01c63,0,74-53,74-53C776.01,534.914,771.881,493.816,771.881,493.816Z" transform="translate(-185.5 -267.585)" fill="#3f3d56"/>
    <circle id="Ellipse_164" data-name="Ellipse 164" cx="56.25" cy="56.25" r="56.25" transform="translate(544.01 250.829)" fill="#3f3d56"/>
    <circle id="Ellipse_165" data-name="Ellipse 165" cx="13.787" cy="13.787" r="13.787" transform="translate(586.473 293.292)" fill="#fff"/>
    <circle id="Ellipse_166" data-name="Ellipse 166" cx="64.75" cy="64.75" r="64.75" transform="translate(251.51 233.829)" fill="#3f3d56"/>
    <circle id="Ellipse_167" data-name="Ellipse 167" cx="15.87" cy="15.87" r="15.87" transform="translate(300.39 282.709)" fill="#fff"/>
    <path id="Path_636" data-name="Path 636" d="M691.1,434.347,679.23,402.1a13.638,13.638,0,0,1,8.087-17.511l34.04-12.531a24,24,0,1,1,16.585,45.039Z" transform="translate(-185.5 -267.585)" fill="#3f3d56"/>
    <path id="Path_637" data-name="Path 637" d="M753.15,394.574a23.549,23.549,0,0,1-8.8,18.34,29.988,29.988,0,0,1-19.7-41.3,23.505,23.505,0,0,1,28.5,22.96Z" transform="translate(-185.5 -267.585)" fill="#636089"/>
    <ellipse id="Ellipse_168" data-name="Ellipse 168" cx="14" cy="17" rx="14" ry="17" transform="translate(251.01 214.829)" fill="#636089"/>
    <path id="Path_638" data-name="Path 638" d="M450.071,292.005h12.26l5.833-31.8h-18.1Z" fill="#ffb8b8"/>
    <path id="Path_639" data-name="Path 639" d="M632.444,555.588h24.145a15.386,15.386,0,0,1,15.386,15.387v.5H632.444Z" transform="translate(-185.5 -267.585)" fill="#2f2e41"/>
    <path id="Path_640" data-name="Path 640" d="M649.8,546.54q-.214,0-.43-.021L632.4,545.284a4.5,4.5,0,0,1-3.809-6.029L651.3,488.24a3.5,3.5,0,0,0-.2-2.8,3.451,3.451,0,0,0-2.211-1.76c-10.677-2.791-38.072-10.223-61.786-18.918-10.16-3.726-16.559-9.109-19.019-16-3.243-9.087,1.555-17.374,1.76-17.722l.161-.272,22.315,2.028,24.191,2.058,53.013,28.428a20.086,20.086,0,0,1,8.819,25.784l-24.441,54.808A4.5,4.5,0,0,1,649.8,546.54Z" transform="translate(-185.5 -267.585)" fill="#2f2e41"/>
    <circle id="Ellipse_169" data-name="Ellipse 169" cx="24.561" cy="24.561" r="24.561" transform="translate(386.144 15.159)" fill="#ffb8b8"/>
    <path id="Path_641" data-name="Path 641" d="M443.071,295.005h12.26l5.833-31.8h-18.1Z" fill="#ffb8b8"/>
    <path id="Path_642" data-name="Path 642" d="M625.444,558.588h24.145a15.386,15.386,0,0,1,15.387,15.387v.5H625.444Z" transform="translate(-185.5 -267.585)" fill="#2f2e41"/>
    <path id="Path_643" data-name="Path 643" d="M642.8,549.54q-.214,0-.43-.021L625.4,548.284a4.5,4.5,0,0,1-3.809-6.029L644.3,491.24a3.5,3.5,0,0,0-.2-2.8,3.451,3.451,0,0,0-2.211-1.76c-10.677-2.791-38.072-10.223-61.786-18.918-10.16-3.726-16.559-9.109-19.019-16-3.243-9.087,1.555-17.374,1.76-17.722l.161-.272,22.315,2.028,24.191,2.058,53.013,28.428a20.086,20.086,0,0,1,8.819,25.784l-24.441,54.808A4.5,4.5,0,0,1,642.8,549.54Z" transform="translate(-185.5 -267.585)" fill="#2f2e41"/>
    <path id="Path_644" data-name="Path 644" d="M603.78,345.794l-26-9s-16.322,12.54-8.481,43.649a77.012,77.012,0,0,1-3.4,48.32,49.77,49.77,0,0,1-2.619,5.531s29,35,56,9l-10.5-50.5S625.28,359.294,603.78,345.794Z" transform="translate(-185.5 -267.585)" fill="#23d8bd"/>
    <path id="Path_645" data-name="Path 645" d="M599.255,332.7c-3.5-5.232-6.254-12.488-2.406-17.466,3.8-4.914,11.292-4.19,17.111-6.365,8.1-3.029,12.8-12.549,11.338-21.076s-8.31-15.594-16.464-18.486-17.348-1.951-25.333,1.379c-9.829,4.1-18.261,12.03-21.8,22.076s-1.646,22.108,5.689,29.83c7.864,8.278,20.206,10.485,31.623,10.351" transform="translate(-185.5 -267.585)" fill="#2f2e41"/>
    <path id="Path_646" data-name="Path 646" d="M576.408,288.069c-4.4,3.586-11.125,1.993-15.854-1.154s-8.565-7.628-13.681-10.1c-9.019-4.35-19.924-1.458-28.7,3.36s-16.559,11.475-25.831,15.256-21.1,3.968-28.125-3.172a25.732,25.732,0,0,0,37.71,30.371c10.159-6.188,15.771-19.164,27.166-22.579,6.305-1.89,13.076-.368,19.449,1.281s13.018,3.43,19.449,2.027,12.447-7.183,11.629-13.715Z" transform="translate(-185.5 -267.585)" fill="#2f2e41"/>
    <path id="Path_647" data-name="Path 647" d="M715.538,392.877a10.743,10.743,0,0,0-15.863-4.442l-95.47-21.427-1.187,23.332,94.217,13.726a10.8,10.8,0,0,0,18.3-11.189Z" transform="translate(-185.5 -267.585)" fill="#ffb8b8"/>
    <path id="Path_648" data-name="Path 648" d="M620.945,369.151l-5.827,23.62a4.817,4.817,0,0,1-6.5,3.3l-22.443-9.2a13.377,13.377,0,0,1,6.484-25.957l24.068,2.283a4.817,4.817,0,0,1,4.22,5.949Z" transform="translate(-185.5 -267.585)" fill="#23d8bd"/>
    <circle id="Ellipse_170" data-name="Ellipse 170" cx="7" cy="7" r="7" transform="translate(512.01 129.829)" fill="#636089"/>
    <path id="Path_649" data-name="Path 649" d="M873.879,631.414a.93.93,0,0,1-.83,1H186.33a1.017,1.017,0,0,1,0-2H873.049A.93.93,0,0,1,873.879,631.414Z" transform="translate(-112.516 -267.585)" fill="#3f3d56"/>
  </g>
</svg>
