<svg xmlns="http://www.w3.org/2000/svg" width="116.659" height="183.321" viewBox="0 0 116.659 183.321">
  <g id="Group_2557" data-name="Group_2557" transform="translate(-1192 -401)">
    <path id="Icon_material-phone-android" data-name="Icon material-phone-android" d="M99.161,1.5H32.5a24.965,24.965,0,0,0-25,25V159.823a24.965,24.965,0,0,0,25,25H99.161a24.965,24.965,0,0,0,25-25V26.5A24.965,24.965,0,0,0,99.161,1.5ZM82.495,168.155H49.164v-8.333H82.495Zm27.082-25H22.082V26.5h87.494Z" transform="translate(1184.5 399.5)" fill="#909090"/>
    <g id="Group_2556" data-name="Group 2556" transform="translate(1226 455)">
      <path id="Path_727" data-name="Path 727" d="M474.932,266.353l.332,2.434,2.051,15.017,3.359,24.593.841,6.157a1.961,1.961,0,0,0,1.944,1.7h22.4a1.962,1.962,0,0,0,1.944-1.692l.856-6.162,3.416-24.593,2.087-15.028.335-2.418a1.961,1.961,0,0,0-1.943-2.232H476.876a1.963,1.963,0,0,0-1.944,2.227Z" transform="translate(-470.164 -257.61)" fill="#909090"/>
      <rect id="Rectangle_1087" data-name="Rectangle 1087" width="34.991" height="6.516" rx="3.258" transform="translate(6.998)" fill="#fff" stroke="#909090" stroke-width="3"/>
      <path id="Path_730" data-name="Path 730" d="M438.462,243.641a207.655,207.655,0,0,0,45.064,0,1.962,1.962,0,0,0,1.962-1.962v-2.592a1.962,1.962,0,0,0-1.962-1.962,184.639,184.639,0,0,1-45.064,0,1.962,1.962,0,0,0-1.962,1.962v2.592A1.962,1.962,0,0,0,438.462,243.641Z" transform="translate(-436.5 -233.868)" fill="#fff" stroke="#909090" stroke-width="3"/>
      <g id="Path_731" data-name="Path 731" transform="translate(-471.64 -407.538)" fill="#fff">
        <path d="M 511.0812683105469 455.9302368164062 L 481.5340881347656 455.9302368164062 L 478.1808776855469 436.1256713867188 L 514.2247924804688 436.1256713867188 L 511.0812683105469 455.9302368164062 Z" stroke="none"/>
        <path d="M 509.8005676269531 454.4302368164062 L 512.4679565429688 437.6256713867188 L 479.9562072753906 437.6256713867188 L 482.8014526367188 454.4302368164062 L 509.8005676269531 454.4302368164062 M 511.3907470703125 457.4302368164062 L 481.2278442382812 457.4302368164062 C 480.6728515625 457.4302368164062 480.1988525390625 457.0297241210938 480.1062622070312 456.4826049804688 L 476.6303100585938 435.9530639648438 C 476.574462890625 435.6228637695312 476.6668701171875 435.2848510742188 476.8829956054688 435.029052734375 C 477.09912109375 434.7732543945312 477.4170532226562 434.6256713867188 477.7518920898438 434.6256713867188 L 514.6494140625 434.6256713867188 C 514.9822387695312 434.6256713867188 515.29833984375 434.7714233398438 515.5145263671875 435.0245361328125 C 515.7306518554688 435.2777099609375 515.8250122070312 435.6127319335938 515.7728271484375 435.9415283203125 L 512.5142211914062 456.470947265625 C 512.426513671875 457.0234375 511.9501342773438 457.4302368164062 511.3907470703125 457.4302368164062 Z" stroke="none" fill="#909090"/>
      </g>
    </g>
  </g>
</svg>
