<svg xmlns="http://www.w3.org/2000/svg" width="206.236" height="183.321" viewBox="0 0 206.236 183.321">
  <path id="Icon_metro-shop" data-name="Icon_metro-shop" d="M62.81,64.779,71.873,4.627H24.737L5.041,56.186a18.074,18.074,0,0,0-.928,5.729c0,12.649,13.176,22.915,29.457,22.915,15.009,0,27.418-8.754,29.24-20.051ZM107.231,84.83c16.27,0,29.457-10.266,29.457-22.915,0-.47-.034-.939-.057-1.386L130.8,4.627H83.663L77.819,60.483c-.023.47-.046.939-.046,1.432,0,12.649,13.188,22.915,29.457,22.915Zm57.288,11.985v45.3H49.943V96.883A48.209,48.209,0,0,1,33.57,99.725a47.242,47.242,0,0,1-6.542-.561v72.744a16.076,16.076,0,0,0,16.018,16.041H171.394a16.1,16.1,0,0,0,16.041-16.041V99.175a49.228,49.228,0,0,1-6.542.561A47.613,47.613,0,0,1,164.519,96.815Zm44.914-40.628L189.714,4.627H142.589l9.051,60.06c1.765,11.343,14.173,20.142,29.251,20.142,16.27,0,29.457-10.266,29.457-22.915a18.4,18.4,0,0,0-.917-5.729Z" transform="translate(-4.113 -4.627)" fill="#909090"/>
</svg>
