<svg xmlns="http://www.w3.org/2000/svg" xmlns:xlink="http://www.w3.org/1999/xlink" width="676" height="469.714" viewBox="0 0 676 469.714">
  <defs>
    <filter id="Path_326" x="0" y="0" width="676" height="469.714" filterUnits="userSpaceOnUse">
      <feOffset dy="3" input="SourceAlpha"/>
      <feGaussianBlur stdDeviation="10" result="blur"/>
      <feFlood flood-opacity="0.102"/>
      <feComposite operator="in" in2="blur"/>
      <feComposite in="SourceGraphic"/>
    </filter>
    <linearGradient id="linear-gradient" x1="0.5" y1="1" x2="0.5" gradientUnits="objectBoundingBox">
      <stop offset="0" stop-color="gray" stop-opacity="0.251"/>
      <stop offset="0.54" stop-color="gray" stop-opacity="0.122"/>
      <stop offset="1" stop-color="gray" stop-opacity="0.102"/>
    </linearGradient>
    <linearGradient id="linear-gradient-2" x1="-8.926" x2="-8.926" y2="0" xlink:href="#linear-gradient"/>
  </defs>
  <g id="_2_Rewards_img" data-name="#2 Rewards img" transform="translate(30 27)">
    <g id="Group_118" data-name="Group 118" transform="translate(0 0)">
      <g transform="matrix(1, 0, 0, 1, -30, -27)" filter="url(#Path_326)">
        <path id="Path_326-2" data-name="Path 326" d="M724.055,366.8c8.527,2.576,16.507,8.813,18.637,17.466,2.436,9.944-3.182,19.969-3.994,30.179-2.622,33.454,44.969,57.057,38.18,89.918-2.7,13.066-13.592,22.678-24.328,30.618-17.2,12.68-36.283,23.882-57.416,27.044-32.076,4.806-65.59-9.319-96.768-.393-25.147,7.2-44.39,28.309-69.364,36.1-19.01,5.931-39.491,3.594-59.24,1.191-10.65-1.291-21.806-2.782-30.4-9.172-15.975-11.895-16.98-35.384-27.676-52.218-16.521-25.959-52.744-31.058-83.116-26.012s-59.866,17.466-90.637,16.454c-6.576-.22-13.312-1.112-19.05-4.34-6.976-3.92-11.688-10.83-15.855-17.665a285.849,285.849,0,0,1-41.448-142.036c-.18-8.62.126-17.612,4.18-25.22,5.125-9.625,15.369-15.382,25.566-19.256,24.488-9.319,51.539-10.843,75.534-21.353,23.144-10.137,41.887-27.916,62.042-43.152a330.472,330.472,0,0,1,136.112-60.618c11.575-2.236,23.59-3.834,35.091-1.251,13.252,2.975,24.674,11.236,34.945,20.128,27.324,23.656,49.223,52.843,74.4,78.769a423.594,423.594,0,0,0,56.524,48.743c9.319,6.716,19.223,14.69,29.607,19.656C705.092,364.918,714,363.773,724.055,366.8Z" transform="translate(-131.54 -164.75)" fill="#fff" opacity="0.65"/>
      </g>
      <path id="Path_340" data-name="Path 340" d="M304.562,358.2h349.01a15.9,15.9,0,0,1,15.9,15.9V578.666a15.9,15.9,0,0,1-15.9,15.9H304.562a15.9,15.9,0,0,1-15.9-15.9V374.1a15.9,15.9,0,0,1,15.9-15.9Z" transform="translate(-138.085 -247.41)" fill="url(#linear-gradient)"/>
      <rect id="Rectangle_982" data-name="Rectangle 982" width="371.848" height="230.803" rx="12" transform="translate(154.535 114.131)" fill="#6c63fc"/>
      <path id="Path_341" data-name="Path 341" d="M966.407,253.031a6.457,6.457,0,0,1-2.842,3.594c-6.117,4.04-19.416,3.182-21.014,3.182-.339,0-.785.606-1.278,1.624-2.35,4.846-5.99,19.05-6.237,22.245-.326,3.867-3.92,21.965-9.8,28.708-.18.206-.359.4-.533.579-5.771,5.8-12.54-.579-12.54-.579l-.972-3.375c.273,1.331.579,2.882.885,4.619.153.872.306,1.8.453,2.749A105.333,105.333,0,0,1,913.9,332.6a58.762,58.762,0,0,1-.253,5.911c-.053.546-.113,1.085-.186,1.611a56.441,56.441,0,0,0-.439,7.215c.053,14.324,3.707,32.143,3.707,32.143l-.14-.047c.087.446.14.666.14.666l-.213-.067q.153.992.293,2.03c1.238,8.986,1.95,20.168,2.29,26.625a53.318,53.318,0,0,1-.453,10.2l-6.5,45.735v21.3a37.606,37.606,0,0,1-1.172,9.572c-2.117,8.047-.373,36.136.606,49.462.273,3.634.486,6.177.546,6.909v.22l-.186-.073v.233a3.765,3.765,0,0,0-.865-.253c2.576,3.994,7.242,10.6,10.83,11.708a11.362,11.362,0,0,1,5.411,3.588l.093.127.133.186a4,4,0,0,1,.779,2.037,2.23,2.23,0,0,0,.12-.393c.273,1.484-.619,2.842-3.421,3.5a23.036,23.036,0,0,1-4.959.4c-9.718,0-26.964-2.989-28.868-6.2V555.848l-.313.1v.1l-1.191.393-3.268-10.969c-3.92-2.9-.666-54.84,0-66.775.6-10.876-6.13-54.141-7.322-61.763l.16-.193-.18-1.112a4.726,4.726,0,0,0-.666.586,8.7,8.7,0,0,0-1.018,1.5,20.111,20.111,0,0,0-1.444,2.982c-6.576,16.4-9.538,63.3-9.538,67.507v44.1a45.927,45.927,0,0,1-1.8,12.866,55.169,55.169,0,0,0-1.4,6.7c-.14.885-.26,1.764-.373,2.6s-.226,1.8-.313,2.583a5.356,5.356,0,0,1-.067.592,1.17,1.17,0,0,0,0,.273c-.18,1.737-.273,2.875-.273,2.875a.665.665,0,0,0-.133-.26l-.033.419a.9.9,0,0,0-.26-.413,6.3,6.3,0,0,0-.879-.719v5.6l.16-.12v.965c-6.776,5.112-17.805,6.656-26.272,6.6-5.491,0-9.938-.666-11.482-1.438-2.21-1.085-1-3.614,1.012-5.551,1.557-1.5,3.588-2.662,4.872-2.516,2.143.233,9.472-8.067,13.312-12.613l-.433-.193-.612-.266V476.759s-.985-29.034-3.92-57.749a102.16,102.16,0,0,1,5.025-42.839l.093-.273-.892.14c-.945.146-1.451.233-1.451.233a5.53,5.53,0,0,1,.06-.666h-.06s1.145-12.454,1.158-28.1c0-17.732-1.5-39.351-7.695-51.585-3.568-7.042-4.759-12.647-4.659-17.066a17.852,17.852,0,0,1,3.188-10.916,8.652,8.652,0,0,1,3.668-2.9l.126-.073h.067a9.12,9.12,0,0,1,3.368-.666h13.386a8.939,8.939,0,0,0,4.42-1.165l5.238-2.969c1.744-3.814,2-8.54,1.624-12.973,0-.353-.067-.706-.1-1.052l-.379-.4c-.293-.313-.566-.666-.832-.965a7.367,7.367,0,0,0,.06.785c.067.419.18.666.359.719-2.862-.373-6.057-.939-7.814-3.148-.073-.087-.14-.18-.206-.273A14.275,14.275,0,0,1,854,240.2a7.734,7.734,0,0,0-.978-1.784c-.439-.572-1.012-1.038-1.484-1.584l-.08-.093c-1.684-2-1.777-4.859-1.8-7.468-.033-6.337.153-13.312,4.393-18.065,3.521-3.954,9.139-5.451,14.471-5.624s10.65.785,15.975.812c3.621,0,7.987-.06,9.984,2.935.978,1.471,1.1,3.395,2.163,4.806.612.812,1.551,1.511,1.6,2.523a2.59,2.59,0,0,1-.346,1.331v.047a9.416,9.416,0,0,1-6.9,4.626,17.2,17.2,0,0,1,1.331,1.837A17.493,17.493,0,0,1,895,233.815a10.926,10.926,0,0,1-.04,1.145,17.592,17.592,0,0,1-5.578,11.722c.053.373.106.745.166,1.112l-.12.107q-.566.513-1.178.972l-.146.113v.666a11.181,11.181,0,0,0,.04,1.158c.04.379,0,.612.04.919l.087-.073,6.5-5.431,10.457-9.678s26.146-19.03,27.457-9.984a6.516,6.516,0,0,1-1.245,4.513c-4.8,7.322-21.3,13.552-21.3,13.552s-9.838,10.4-16.421,21.619c.233.126.466.246.712.359,5.857,2.722,14.4,1.571,14.4,1.571,9.871,1.538,10.763,12.354,10.71,16.727v.905l13.1-30.758.04-.093a6.476,6.476,0,0,1,4.9-3.847C946.345,249.637,968.237,246.568,966.407,253.031Zm-54.84,298.863a5.7,5.7,0,0,0-.579-.106l.06.093Z" transform="translate(-790.206 -196.369)" fill="url(#linear-gradient-2)"/>
      <path id="Path_342" data-name="Path 342" d="M1001.714,716.43s-12.407,15.6-15.276,15.276-9.545,6.044-5.731,7.987,25.773,3.182,36.609-5.092V722.134Z" transform="translate(-945.804 -367.195)" fill="#aca9c9"/>
      <path id="Path_343" data-name="Path 343" d="M898.3,717.86s7.322,13.046,12.407,14.644,9.545,7.322,2.862,8.913-30.552-1.91-32.775-5.731V718.812Z" transform="translate(-779.699 -367.673)" fill="#aca9c9"/>
      <path id="Path_344" data-name="Path 344" d="M973.582,500.148l-6.323,45.116v20.974a37.592,37.592,0,0,1-1.145,9.439c-2.063,7.941-.366,35.644.592,48.79.313,4.286.553,7.029.553,7.029-4.134-1.91-21.639,4.134-21.639,4.134l-1.771-6.024-1.411-4.793c-3.821-2.862-.666-54.095,0-65.9.433-8.061-3.162-34.193-5.465-49.855-.666-4.426-1.2-7.987-1.531-10.131-.206-1.331-.319-2.07-.319-2.07a6.97,6.97,0,0,0-1.717,2.07,19.932,19.932,0,0,0-1.4,2.942c-6.4,16.181-9.319,62.442-9.319,66.562v43.5a45.875,45.875,0,0,1-1.751,12.693,66.582,66.582,0,0,0-1.724,9.166c-.453,3.454-.666,6.237-.666,6.237-.32-1.91-20.048-10.5-20.048-10.5V556.978s-.952-28.622-3.821-56.964a101.624,101.624,0,0,1,3.661-38.326c.792-2.709,1.584-5.005,2.27-6.823,1.165-3.1,2-4.806,2-4.806h64.991c1.092.206,2,2.4,2.816,5.738.533,2.236,1,4.979,1.4,7.987,1.2,8.859,1.9,19.889,2.23,26.265A53.167,53.167,0,0,1,973.582,500.148Z" transform="translate(-845.785 -278.126)" fill="#618fd8"/>
      <g id="Group_117" data-name="Group 117" transform="translate(48.29 172.134)" opacity="0.1">
        <path id="Path_345" data-name="Path 345" d="M983.294,629.837V557.285s-.952-28.622-3.821-56.964,7.987-49.961,7.987-49.961h-1.271S975.373,472,978.2,500.321s3.821,56.964,3.821,56.964v72.552s19.729,8.593,20.048,10.5a9.517,9.517,0,0,1,.1-1.158C997.871,636.194,983.294,629.837,983.294,629.837Z" transform="translate(-977.73 -450.36)"/>
        <path id="Path_346" data-name="Path 346" d="M904.74,722.332a4.939,4.939,0,0,1,1.75.359v-.32A11.365,11.365,0,0,0,904.74,722.332Z" transform="translate(-833.466 -541.297)"/>
        <path id="Path_347" data-name="Path 347" d="M943.94,648.565c-3.821-2.862-.666-54.095,0-65.9s-7.322-62.049-7.322-62.049a5.549,5.549,0,0,0-1.1,1.132c1.172,7.508,7.721,50.194,7.142,60.917-.666,11.775-3.821,63.007,0,65.9l3.182,10.816L947,659Z" transform="translate(-894.465 -473.854)"/>
      </g>
      <path id="Path_348" data-name="Path 348" d="M824.941,312.523l6.656,23.55s7,6.656,12.727,0,9.252-24.5,9.6-28.322,5.411-23.55,7.322-23.55,21,1.271,23.23-6.656c1.784-6.377-19.529-3.328-28.062-1.9a6.323,6.323,0,0,0-4.772,3.794l-13.086,31.251S831.624,302.659,824.941,312.523Z" transform="translate(-710.15 -219.139)" fill="#f7c4a7"/>
      <path id="Path_349" data-name="Path 349" d="M929.731,249.82s8.274,23.23-2.23,31.5,37.561,10.5,37.561,10.5l-6.523-6.2s-4.613-18.3-1.431-33.574Z" transform="translate(-857.899 -211.169)" fill="#f7c4a7"/>
      <path id="Path_350" data-name="Path 350" d="M935.094,294.993s-8.433-2.07-8.433-4.293l-7.475,4.293H900.408s-13.685,7.635-2.23,30.552,6.363,79.209,6.363,79.209,40.729-7.322,74.463,3.821c0,0-5.092-25.14-3.182-39.458s-3.182-34.366-3.182-34.366l-2.862-12.094s.16-11.315,11.935-5.571c0,0,1.75-16.388-10.344-18.3,0,0-13.978,1.91-18.138-5.092C953.232,293.722,944,299.133,935.094,294.993Z" transform="translate(-853.078 -224.839)" opacity="0.1"/>
      <path id="Path_351" data-name="Path 351" d="M935.092,294.043s-8.433-2.07-8.433-4.293l-5.478,3.148a8.654,8.654,0,0,1-4.3,1.145H903.748a8.653,8.653,0,0,0-7.036,3.581c-3.015,4.24-5.718,12.6,1.464,26.971,11.455,22.911,6.363,79.209,6.363,79.209s40.729-7.322,74.463,3.821c0,0-5.092-25.14-3.182-39.458s-3.182-34.319-3.182-34.319l-2.862-12.094s.16-11.316,11.935-5.571c0,0,1.7-15.935-9.844-18.211a3.261,3.261,0,0,0-.979-.067c-2.469.26-13.978,1.092-17.666-5.145C953.23,292.765,944,298.177,935.092,294.043Z" transform="translate(-853.076 -224.521)" fill="#3f3d56"/>
      <path id="Path_352" data-name="Path 352" d="M936.344,327.135s10.184,6.363,26.731,0c0,0,18.138-6.656,23.869-19.729s-28.954,2.23-28.954,2.23-7.322,0-9.545-1.591S930.619,320.132,936.344,327.135Z" transform="translate(-886.47 -228.658)" opacity="0.1"/>
      <path id="Path_353" data-name="Path 353" d="M875.549,303.963s10.184,6.363,26.731,0c0,0,18.138-6.656,23.869-19.729s19.09-27.39,19.09-27.39,23.23-8.913,21.965-17.819-26.731,9.864-26.731,9.864l-10.184,9.545-33.094,28s-7.322,0-9.545-1.591S869.825,296.961,875.549,303.963Z" transform="translate(-825.676 -206.758)" fill="#f7c4a7"/>
      <path id="Path_354" data-name="Path 354" d="M964.854,253.48l-27.364-2.23a62.809,62.809,0,0,1,2.856,12.96,17.486,17.486,0,0,0,24.495.666A31.1,31.1,0,0,1,964.854,253.48Z" transform="translate(-865.339 -211.647)" opacity="0.1"/>
      <circle id="Ellipse_91" data-name="Ellipse 91" cx="17.499" cy="17.499" r="17.499" transform="translate(69.762 21.95)" fill="#f7c4a7"/>
      <path id="Path_355" data-name="Path 355" d="M941.816,241.148c1.025-1.691-1.058-3.894-.373-5.744.632-1.7,3.148-2,3.994-3.588.666-1.285,0-2.862.266-4.28.379-1.83,2.35-2.969,4.22-3.062a15.057,15.057,0,0,1,5.451,1.2,20.93,20.93,0,0,0,8.979,1.384,9.415,9.415,0,0,0,7.415-4.706,2.662,2.662,0,0,0,.339-1.291c-.053-1-.972-1.684-1.564-2.483-1.038-1.391-1.158-3.288-2.1-4.739-1.93-2.955-6.17-2.882-9.7-2.9-5.192,0-10.357-.972-15.549-.8s-10.65,1.644-14.091,5.545c-4.127,4.693-4.313,11.562-4.28,17.819,0,2.576.106,5.378,1.751,7.368.479.579,1.065,1.058,1.524,1.651,1,1.331,1.265,3.035,2.2,4.386,1.664,2.4,4.912,2.989,7.808,3.375-.852-.113-.146-5.818,0-6.343C938.668,241.327,939.273,241.38,941.816,241.148Z" transform="translate(-864.16 -197.897)" opacity="0.1"/>
      <path id="Path_356" data-name="Path 356" d="M941.816,240.2c1.025-1.691-1.058-3.894-.373-5.744.632-1.7,3.148-2,3.994-3.588.666-1.285,0-2.862.266-4.28.379-1.83,2.35-2.969,4.22-3.062a15.056,15.056,0,0,1,5.451,1.2,20.93,20.93,0,0,0,8.979,1.384,9.415,9.415,0,0,0,7.415-4.706,2.662,2.662,0,0,0,.339-1.291c-.053-1-.972-1.684-1.564-2.483-1.038-1.391-1.158-3.288-2.1-4.739-1.93-2.955-6.17-2.882-9.7-2.9-5.192,0-10.357-.972-15.549-.8s-10.65,1.644-14.091,5.545c-4.127,4.693-4.313,11.562-4.28,17.819,0,2.576.106,5.378,1.751,7.368.479.579,1.065,1.058,1.524,1.651,1,1.331,1.265,3.035,2.2,4.386,1.664,2.4,4.912,2.989,7.808,3.375-.852-.113-.146-5.818,0-6.343C938.668,240.344,939.273,240.424,941.816,240.2Z" transform="translate(-864.16 -197.58)" fill="#281c1c"/>
      <path id="Path_357" data-name="Path 357" d="M990.59,329.249s8.593-22.278,15.276-22.911-12.727,0-12.727,0l-6.363,11.455Z" transform="translate(-940.557 -229.974)" opacity="0.1"/>
      <path id="Path_358" data-name="Path 358" d="M991.55,329.249s8.593-22.278,15.276-22.911-12.727,0-12.727,0l-6.363,11.455Z" transform="translate(-942.156 -229.974)" fill="#3f3d56"/>
      <path id="Path_359" data-name="Path 359" d="M997.364,721.435c-.453,3.455-.666,6.237-.666,6.237-.32-1.91-20.048-10.5-20.048-10.5V712a8.768,8.768,0,0,1,1.5.073c3.827.513,7.375,2.37,10.65,4.353a97.141,97.141,0,0,0,8.56,5.012Z" transform="translate(-923.915 -365.711)" fill="#618fd8"/>
      <path id="Path_360" data-name="Path 360" d="M997.364,721.435c-.453,3.455-.666,6.237-.666,6.237-.32-1.91-20.048-10.5-20.048-10.5V712a8.768,8.768,0,0,1,1.5.073c3.827.513,7.375,2.37,10.65,4.353a97.141,97.141,0,0,0,8.56,5.012Z" transform="translate(-923.915 -365.711)" opacity="0.3"/>
      <path id="Path_361" data-name="Path 361" d="M927.91,718.9c-4.134-1.91-21.639,4.133-21.639,4.133l-1.771-6.024c3.055-.619,6.09-1.391,9.072-2.31a30.181,30.181,0,0,0,4.074-1.5,27.3,27.3,0,0,1,2.716-1.265c2.283-.785,4.659-.453,7-.06C927.67,716.157,927.91,718.9,927.91,718.9Z" transform="translate(-806.436 -365.531)" fill="#618fd8"/>
      <path id="Path_362" data-name="Path 362" d="M927.91,718.9c-4.134-1.91-21.639,4.133-21.639,4.133l-1.771-6.024c3.055-.619,6.09-1.391,9.072-2.31a30.181,30.181,0,0,0,4.074-1.5,27.3,27.3,0,0,1,2.716-1.265c2.283-.785,4.659-.453,7-.06C927.67,716.157,927.91,718.9,927.91,718.9Z" transform="translate(-806.436 -365.531)" opacity="0.3"/>
      <path id="Path_363" data-name="Path 363" d="M980.457,747.332a1.9,1.9,0,0,1-1.092-1.265,1.87,1.87,0,0,0,1.092,2.216c3.821,1.91,25.773,3.182,36.609-5.092v-.952C1006.229,750.514,984.277,749.242,980.457,747.332Z" transform="translate(-945.38 -375.825)" fill="#fff" opacity="0.4"/>
      <path id="Path_364" data-name="Path 364" d="M913.323,748.921c-6.656,1.591-30.552-1.91-32.775-5.731v.952c2.23,3.821,26.092,7.322,32.775,5.731,2.729-.666,3.6-2,3.328-3.455C916.438,747.5,915.44,748.388,913.323,748.921Z" transform="translate(-779.283 -376.143)" fill="#fff" opacity="0.4"/>
      <path id="Path_365" data-name="Path 365" d="M903.15,403.032s7-2.23,8.913,0,18.238,7.455,18.238,7.455" transform="translate(-807.928 -262.069)" opacity="0.1"/>
      <rect id="Rectangle_986" data-name="Rectangle 986" width="34.046" height="0.719" transform="translate(140.404 52.808)" fill="#8ed16f"/>
      <rect id="Rectangle_987" data-name="Rectangle 987" width="34.046" height="0.719" transform="translate(140.404 53.527)" fill="#8ed16f"/>
      <rect id="Rectangle_988" data-name="Rectangle 988" width="34.046" height="0.719" transform="translate(140.404 53.527)" opacity="0.1"/>
      <rect id="Rectangle_989" data-name="Rectangle 989" width="34.046" height="0.719" transform="translate(140.404 54.246)" fill="#8ed16f"/>
      <rect id="Rectangle_990" data-name="Rectangle 990" width="34.046" height="0.719" transform="translate(140.404 54.958)" fill="#8ed16f"/>
      <rect id="Rectangle_991" data-name="Rectangle 991" width="34.046" height="0.719" transform="translate(140.404 54.958)" opacity="0.1"/>
      <rect id="Rectangle_992" data-name="Rectangle 992" width="34.046" height="0.719" transform="translate(140.404 55.677)" fill="#8ed16f"/>
      <rect id="Rectangle_993" data-name="Rectangle 993" width="34.046" height="0.719" transform="translate(140.404 56.389)" fill="#8ed16f"/>
      <rect id="Rectangle_994" data-name="Rectangle 994" width="34.046" height="0.719" transform="translate(140.404 56.389)" opacity="0.1"/>
      <rect id="Rectangle_995" data-name="Rectangle 995" width="34.046" height="0.719" transform="translate(140.404 57.108)" fill="#8ed16f"/>
      <rect id="Rectangle_996" data-name="Rectangle 996" width="34.046" height="0.719" transform="translate(140.404 57.821)" fill="#8ed16f"/>
      <rect id="Rectangle_997" data-name="Rectangle 997" width="34.046" height="0.719" transform="translate(140.404 57.821)" opacity="0.1"/>
      <rect id="Rectangle_998" data-name="Rectangle 998" width="34.046" height="0.719" transform="translate(140.404 47.084)" fill="#8ed16f"/>
      <rect id="Rectangle_999" data-name="Rectangle 999" width="34.046" height="0.719" transform="translate(123.731 52.001) rotate(-39.75)" fill="#8ed16f"/>
      <rect id="Rectangle_1000" data-name="Rectangle 1000" width="34.046" height="0.719" transform="translate(147.596 40.547) rotate(-39.75)" fill="#8ed16f"/>
      <rect id="Rectangle_1001" data-name="Rectangle 1001" width="34.046" height="0.719" transform="translate(140.404 47.796)" fill="#8ed16f"/>
      <rect id="Rectangle_1002" data-name="Rectangle 1002" width="34.046" height="0.719" transform="translate(140.404 47.796)" opacity="0.1"/>
      <rect id="Rectangle_1003" data-name="Rectangle 1003" width="34.046" height="0.719" transform="translate(140.404 48.522)" fill="#8ed16f"/>
      <rect id="Rectangle_1004" data-name="Rectangle 1004" width="34.046" height="0.719" transform="translate(140.404 49.234)" fill="#8ed16f"/>
      <rect id="Rectangle_1005" data-name="Rectangle 1005" width="34.046" height="0.719" transform="translate(140.404 49.234)" opacity="0.1"/>
      <rect id="Rectangle_1006" data-name="Rectangle 1006" width="34.046" height="0.719" transform="translate(140.404 49.946)" fill="#8ed16f"/>
      <rect id="Rectangle_1007" data-name="Rectangle 1007" width="34.046" height="0.719" transform="translate(140.404 50.665)" fill="#8ed16f"/>
      <rect id="Rectangle_1008" data-name="Rectangle 1008" width="34.046" height="0.719" transform="translate(140.404 50.665)" opacity="0.1"/>
      <rect id="Rectangle_1009" data-name="Rectangle 1009" width="34.046" height="0.719" transform="translate(140.404 51.377)" fill="#8ed16f"/>
      <rect id="Rectangle_1010" data-name="Rectangle 1010" width="34.046" height="0.719" transform="translate(140.404 52.096)" fill="#8ed16f"/>
      <rect id="Rectangle_1011" data-name="Rectangle 1011" width="34.046" height="0.719" transform="translate(140.404 52.096)" opacity="0.1"/>
      <rect id="Rectangle_1012" data-name="Rectangle 1012" width="12.407" height="24.182" transform="translate(162.151 59.216) rotate(-10.52)" fill="#8ed16f"/>
      <ellipse id="Ellipse_92" data-name="Ellipse 92" cx="5.092" cy="2.543" rx="5.092" ry="2.543" transform="matrix(-0.183, -0.983, 0.983, -0.183, 168.719, 75.519)" fill="#8ed16f"/>
      <ellipse id="Ellipse_93" data-name="Ellipse 93" cx="5.092" cy="2.543" rx="5.092" ry="2.543" transform="matrix(-0.183, -0.983, 0.983, -0.183, 168.719, 75.519)" opacity="0.1"/>
      <rect id="Rectangle_1013" data-name="Rectangle 1013" width="12.407" height="24.182" transform="translate(160.064 109.399) rotate(-10.52)" fill="#8ed16f"/>
      <ellipse id="Ellipse_94" data-name="Ellipse 94" cx="5.092" cy="2.543" rx="5.092" ry="2.543" transform="matrix(-0.183, -0.983, 0.983, -0.183, 166.638, 125.697)" fill="#8ed16f"/>
      <ellipse id="Ellipse_95" data-name="Ellipse 95" cx="5.092" cy="2.543" rx="5.092" ry="2.543" transform="matrix(-0.183, -0.983, 0.983, -0.183, 166.638, 125.697)" opacity="0.1"/>
      <rect id="Rectangle_1014" data-name="Rectangle 1014" width="12.407" height="24.182" transform="translate(205.438 29.982) rotate(-118.42)" fill="#8ed16f"/>
      <ellipse id="Ellipse_96" data-name="Ellipse 96" cx="2.549" cy="5.104" rx="2.549" ry="5.104" transform="translate(207.787 23.92) rotate(-118.61)" fill="#8ed16f"/>
      <ellipse id="Ellipse_97" data-name="Ellipse 97" cx="2.549" cy="5.104" rx="2.549" ry="5.104" transform="translate(207.787 23.92) rotate(-118.61)" opacity="0.1"/>
      <rect id="Rectangle_1016" data-name="Rectangle 1016" width="12.407" height="24.182" transform="translate(280.708 67.616) rotate(-118.42)" fill="#8ed16f"/>
      <ellipse id="Ellipse_100" data-name="Ellipse 100" cx="2.543" cy="5.092" rx="2.543" ry="5.092" transform="translate(285.196 61.202) rotate(-118.42)" fill="#8ed16f"/>
      <ellipse id="Ellipse_101" data-name="Ellipse 101" cx="2.543" cy="5.092" rx="2.543" ry="5.092" transform="translate(285.196 61.202) rotate(-118.42)" opacity="0.1"/>
      <rect id="Rectangle_1017" data-name="Rectangle 1017" width="12.407" height="24.182" transform="translate(244.898 29.979) rotate(-118.42)" fill="#8ed16f"/>
      <ellipse id="Ellipse_102" data-name="Ellipse 102" cx="2.543" cy="5.092" rx="2.543" ry="5.092" transform="translate(249.386 23.564) rotate(-118.42)" fill="#8ed16f"/>
      <ellipse id="Ellipse_103" data-name="Ellipse 103" cx="2.543" cy="5.092" rx="2.543" ry="5.092" transform="translate(249.386 23.564) rotate(-118.42)" opacity="0.1"/>
      <rect id="Rectangle_1018" data-name="Rectangle 1018" width="12.407" height="24.182" transform="translate(234.211 77.357) rotate(-173.76)" fill="#8ed16f"/>
      <ellipse id="Ellipse_104" data-name="Ellipse 104" cx="2.543" cy="5.092" rx="2.543" ry="5.092" transform="translate(231.495 70.022) rotate(-173.76)" fill="#8ed16f"/>
      <ellipse id="Ellipse_105" data-name="Ellipse 105" cx="2.543" cy="5.092" rx="2.543" ry="5.092" transform="translate(231.495 70.022) rotate(-173.76)" opacity="0.1"/>
      <rect id="Rectangle_1019" data-name="Rectangle 1019" width="12.407" height="24.182" transform="translate(149.65 208.989) rotate(-173.76)" fill="#8ed16f"/>
      <ellipse id="Ellipse_106" data-name="Ellipse 106" cx="2.543" cy="5.092" rx="2.543" ry="5.092" transform="translate(146.928 201.654) rotate(-173.76)" fill="#8ed16f"/>
      <ellipse id="Ellipse_107" data-name="Ellipse 107" cx="2.543" cy="5.092" rx="2.543" ry="5.092" transform="translate(146.928 201.654) rotate(-173.76)" opacity="0.1"/>
      <rect id="Rectangle_1020" data-name="Rectangle 1020" width="12.407" height="24.182" transform="translate(257.441 125.453) rotate(-118.42)" fill="#8ed16f"/>
      <ellipse id="Ellipse_108" data-name="Ellipse 108" cx="2.543" cy="5.092" rx="2.543" ry="5.092" transform="translate(261.933 119.048) rotate(-118.42)" fill="#8ed16f"/>
      <ellipse id="Ellipse_109" data-name="Ellipse 109" cx="2.543" cy="5.092" rx="2.543" ry="5.092" transform="translate(261.933 119.048) rotate(-118.42)" opacity="0.1"/>
      <rect id="Rectangle_1021" data-name="Rectangle 1021" width="12.407" height="24.182" transform="translate(311.109 110.125) rotate(-118.42)" fill="#8ed16f"/>
      <ellipse id="Ellipse_110" data-name="Ellipse 110" cx="2.549" cy="5.104" rx="2.549" ry="5.104" transform="translate(313.839 104.445) rotate(-118.61)" fill="#8ed16f"/>
      <ellipse id="Ellipse_111" data-name="Ellipse 111" cx="2.549" cy="5.104" rx="2.549" ry="5.104" transform="translate(313.839 104.445) rotate(-118.61)" opacity="0.1"/>
      <rect id="Rectangle_1022" data-name="Rectangle 1022" width="12.407" height="24.182" transform="translate(328.298 368.19) rotate(-118.42)" fill="#8ed16f"/>
      <ellipse id="Ellipse_112" data-name="Ellipse 112" cx="2.543" cy="5.092" rx="2.543" ry="5.092" transform="translate(332.786 361.778) rotate(-118.42)" fill="#8ed16f"/>
      <ellipse id="Ellipse_113" data-name="Ellipse 113" cx="2.543" cy="5.092" rx="2.543" ry="5.092" transform="translate(332.786 361.778) rotate(-118.42)" opacity="0.1"/>
      <rect id="Rectangle_1023" data-name="Rectangle 1023" width="12.407" height="24.182" transform="translate(337.62 366.587) rotate(-100.51)" fill="#8ed16f"/>
      <rect id="Rectangle_1024" data-name="Rectangle 1024" width="12.407" height="24.182" transform="translate(337.62 366.587) rotate(-100.51)" opacity="0.05"/>
      <ellipse id="Ellipse_114" data-name="Ellipse 114" cx="2.543" cy="5.092" rx="2.543" ry="5.092" transform="translate(343.858 361.865) rotate(-100.51)" fill="#8ed16f"/>
      <ellipse id="Ellipse_115" data-name="Ellipse 115" cx="2.543" cy="5.092" rx="2.543" ry="5.092" transform="translate(343.858 361.865) rotate(-100.51)" opacity="0.1"/>
      <rect id="Rectangle_1025" data-name="Rectangle 1025" width="12.407" height="24.182" transform="translate(335.392 373.903) rotate(-100.51)" fill="#8ed16f"/>
      <ellipse id="Ellipse_116" data-name="Ellipse 116" cx="2.543" cy="5.092" rx="2.543" ry="5.092" transform="translate(341.637 369.181) rotate(-100.51)" fill="#8ed16f"/>
      <ellipse id="Ellipse_117" data-name="Ellipse 117" cx="2.543" cy="5.092" rx="2.543" ry="5.092" transform="translate(341.637 369.181) rotate(-100.51)" opacity="0.1"/>
      <rect id="Rectangle_1026" data-name="Rectangle 1026" width="12.407" height="24.182" transform="translate(303.211 399.553) rotate(-118.42)" fill="#8ed16f"/>
      <ellipse id="Ellipse_118" data-name="Ellipse 118" cx="2.543" cy="5.092" rx="2.543" ry="5.092" transform="translate(307.693 393.141) rotate(-118.42)" fill="#8ed16f"/>
      <ellipse id="Ellipse_119" data-name="Ellipse 119" cx="2.543" cy="5.092" rx="2.543" ry="5.092" transform="translate(307.693 393.141) rotate(-118.42)" opacity="0.1"/>
      <rect id="Rectangle_1027" data-name="Rectangle 1027" width="12.407" height="24.182" transform="translate(312.528 397.942) rotate(-100.51)" fill="#8ed16f"/>
      <rect id="Rectangle_1028" data-name="Rectangle 1028" width="12.407" height="24.182" transform="translate(312.528 397.942) rotate(-100.51)" opacity="0.05"/>
      <ellipse id="Ellipse_120" data-name="Ellipse 120" cx="2.543" cy="5.092" rx="2.543" ry="5.092" transform="translate(318.773 393.22) rotate(-100.51)" fill="#8ed16f"/>
      <ellipse id="Ellipse_121" data-name="Ellipse 121" cx="2.543" cy="5.092" rx="2.543" ry="5.092" transform="translate(318.773 393.22) rotate(-100.51)" opacity="0.1"/>
      <rect id="Rectangle_1029" data-name="Rectangle 1029" width="12.407" height="24.182" transform="translate(310.302 405.265) rotate(-100.51)" fill="#8ed16f"/>
      <ellipse id="Ellipse_122" data-name="Ellipse 122" cx="2.543" cy="5.092" rx="2.543" ry="5.092" transform="translate(316.54 400.544) rotate(-100.51)" fill="#8ed16f"/>
      <ellipse id="Ellipse_123" data-name="Ellipse 123" cx="2.543" cy="5.092" rx="2.543" ry="5.092" transform="translate(316.54 400.544) rotate(-100.51)" opacity="0.1"/>
      <rect id="Rectangle_1030" data-name="Rectangle 1030" width="12.407" height="24.182" transform="translate(265.572 379.341) rotate(-118.42)" fill="#8ed16f"/>
      <ellipse id="Ellipse_124" data-name="Ellipse 124" cx="2.543" cy="5.092" rx="2.543" ry="5.092" transform="translate(270.066 372.926) rotate(-118.42)" fill="#8ed16f"/>
      <ellipse id="Ellipse_125" data-name="Ellipse 125" cx="2.543" cy="5.092" rx="2.543" ry="5.092" transform="translate(270.066 372.926) rotate(-118.42)" opacity="0.1"/>
      <rect id="Rectangle_1031" data-name="Rectangle 1031" width="12.407" height="24.182" transform="translate(274.892 377.734) rotate(-100.51)" fill="#8ed16f"/>
      <rect id="Rectangle_1032" data-name="Rectangle 1032" width="12.407" height="24.182" transform="translate(274.892 377.734) rotate(-100.51)" opacity="0.05"/>
      <ellipse id="Ellipse_126" data-name="Ellipse 126" cx="2.543" cy="5.092" rx="2.543" ry="5.092" transform="translate(281.137 373.012) rotate(-100.51)" fill="#8ed16f"/>
      <ellipse id="Ellipse_127" data-name="Ellipse 127" cx="2.543" cy="5.092" rx="2.543" ry="5.092" transform="translate(281.137 373.012) rotate(-100.51)" opacity="0.1"/>
      <rect id="Rectangle_1033" data-name="Rectangle 1033" width="12.407" height="24.182" transform="translate(272.666 385.056) rotate(-100.51)" fill="#8ed16f"/>
      <ellipse id="Ellipse_128" data-name="Ellipse 128" cx="2.543" cy="5.092" rx="2.543" ry="5.092" transform="translate(278.904 380.336) rotate(-100.51)" fill="#8ed16f"/>
      <ellipse id="Ellipse_129" data-name="Ellipse 129" cx="2.543" cy="5.092" rx="2.543" ry="5.092" transform="translate(278.904 380.336) rotate(-100.51)" opacity="0.1"/>
      <g id="Group_120" data-name="Group 120" transform="translate(202.906 208.076)">
        <path id="Path_366" data-name="Path 366" d="M21.162,1.862,17.195,14.076a1.973,1.973,0,0,1-1.879,1.362H2.478a1.975,1.975,0,0,0-1.161,3.573L11.7,26.555a1.975,1.975,0,0,1,.718,2.207L8.455,40.972a1.973,1.973,0,0,0,3.036,2.207l10.39-7.544a1.979,1.979,0,0,1,2.321,0l10.386,7.548a1.972,1.972,0,0,0,3.036-2.207L33.657,28.762a1.969,1.969,0,0,1,.718-2.207l10.386-7.544A1.975,1.975,0,0,0,43.6,15.438H30.763a1.973,1.973,0,0,1-1.879-1.362L24.916,1.862A1.975,1.975,0,0,0,21.162,1.862Z" transform="translate(228.635 -0.5)" fill="#ffc915"/>
        <path id="Path_366-2" data-name="Path 366" d="M21.162,1.862,17.195,14.076a1.973,1.973,0,0,1-1.879,1.362H2.478a1.975,1.975,0,0,0-1.161,3.573L11.7,26.555a1.975,1.975,0,0,1,.718,2.207L8.455,40.972a1.973,1.973,0,0,0,3.036,2.207l10.39-7.544a1.979,1.979,0,0,1,2.321,0l10.386,7.548a1.972,1.972,0,0,0,3.036-2.207L33.657,28.762a1.969,1.969,0,0,1,.718-2.207l10.386-7.544A1.975,1.975,0,0,0,43.6,15.438H30.763a1.973,1.973,0,0,1-1.879-1.362L24.916,1.862A1.975,1.975,0,0,0,21.162,1.862Z" transform="translate(171.351 -0.5)" fill="#ffc915"/>
        <path id="Path_366-3" data-name="Path 366" d="M21.162,1.862,17.195,14.076a1.973,1.973,0,0,1-1.879,1.362H2.478a1.975,1.975,0,0,0-1.161,3.573L11.7,26.555a1.975,1.975,0,0,1,.718,2.207L8.455,40.972a1.973,1.973,0,0,0,3.036,2.207l10.39-7.544a1.979,1.979,0,0,1,2.321,0l10.386,7.548a1.972,1.972,0,0,0,3.036-2.207L33.657,28.762a1.969,1.969,0,0,1,.718-2.207l10.386-7.544A1.975,1.975,0,0,0,43.6,15.438H30.763a1.973,1.973,0,0,1-1.879-1.362L24.916,1.862A1.975,1.975,0,0,0,21.162,1.862Z" transform="translate(114.067 -0.5)" fill="#ffc915"/>
        <path id="Path_366-4" data-name="Path 366" d="M21.162,1.862,17.195,14.076a1.973,1.973,0,0,1-1.879,1.362H2.478a1.975,1.975,0,0,0-1.161,3.573L11.7,26.555a1.975,1.975,0,0,1,.718,2.207L8.455,40.972a1.973,1.973,0,0,0,3.036,2.207l10.39-7.544a1.979,1.979,0,0,1,2.321,0l10.386,7.548a1.972,1.972,0,0,0,3.036-2.207L33.657,28.762a1.969,1.969,0,0,1,.718-2.207l10.386-7.544A1.975,1.975,0,0,0,43.6,15.438H30.763a1.973,1.973,0,0,1-1.879-1.362L24.916,1.862A1.975,1.975,0,0,0,21.162,1.862Z" transform="translate(56.784 -0.5)" fill="#ffc915"/>
        <path id="Path_366-5" data-name="Path 366" d="M21.162,1.862,17.195,14.076a1.973,1.973,0,0,1-1.879,1.362H2.478a1.975,1.975,0,0,0-1.161,3.573L11.7,26.555a1.975,1.975,0,0,1,.718,2.207L8.455,40.972a1.973,1.973,0,0,0,3.036,2.207l10.39-7.544a1.979,1.979,0,0,1,2.321,0l10.386,7.548a1.972,1.972,0,0,0,3.036-2.207L33.657,28.762a1.969,1.969,0,0,1,.718-2.207l10.386-7.544A1.975,1.975,0,0,0,43.6,15.438H30.763a1.973,1.973,0,0,1-1.879-1.362L24.916,1.862A1.975,1.975,0,0,0,21.162,1.862Z" transform="translate(-0.5 -0.5)" fill="#ffc915"/>
      </g>
    </g>
    <circle id="Ellipse_130" data-name="Ellipse 130" cx="25.205" cy="25.205" r="25.205" transform="translate(181.536 126.024)" fill="#e3e3e3" opacity="0.304"/>
    <rect id="Rectangle_1034" data-name="Rectangle 1034" width="95.091" height="16.039" rx="8.02" transform="translate(245.693 135.189)" fill="#e3e3e3" opacity="0.304"/>
  </g>
</svg>
