<svg id="_1_skip_the_line_img" data-name="#1 skip the line img" xmlns="http://www.w3.org/2000/svg" width="554.541" height="523.241" viewBox="0 0 554.541 523.241">
  <rect id="Rectangle_1082" data-name="Rectangle 1082" width="373.538" height="1.611" transform="translate(0 520.482)" fill="#3f3d56"/>
  <path id="Path_650" data-name="Path 650" d="M800.168,419.021a7.923,7.923,0,0,0,1.549,11.666l38.658,26.542L857.4,468.577a4.68,4.68,0,0,0,6.218-.93h0a4.68,4.68,0,0,0-1.272-7.011l-16.488-9.574-28.775-27.4,18.5-19.868-13.7-10.277Z" transform="translate(-730.456 -172.504)" fill="#a0616a"/>
  <path id="Path_651" data-name="Path 651" d="M534.461,659.683h9.456l5.617-78.1-23.979-.685Z" transform="translate(-373.844 -163.257)" fill="#a0616a"/>
  <path id="Path_652" data-name="Path 652" d="M725.94,800.737c2.521,1.151,4.633-8.173,6.76-6.083,5.949,5.846,15.059,7.119,23,4.567l-2.779-.031a3.719,3.719,0,0,0,2.344-4.846h0a3.719,3.719,0,0,0-2.58-2.3l-6.327-1.582-9.934-17.471-10.141-.685h0a24.229,24.229,0,0,0-4.481,20.669C722.721,796.73,724.142,799.917,725.94,800.737Z" transform="translate(-566.008 -278.961)" fill="#2f2e41"/>
  <path id="Path_653" data-name="Path 653" d="M622.723,658.076h9.456l5.616-78.1-24.665-4.8Z" transform="translate(-525.069 -161.65)" fill="#a0616a"/>
  <path id="Path_654" data-name="Path 654" d="M813.5,800.469c2.521,1.151,4.634-8.173,6.76-6.083,5.949,5.846,15.059,7.119,23,4.567l-2.779-.031a3.719,3.719,0,0,0,2.344-4.846h0a3.719,3.719,0,0,0-2.58-2.3l-6.327-1.582-9.934-17.471-10.827-1.37-.273.447a27.914,27.914,0,0,0-2.991,22.826C810.8,797.51,812.023,799.793,813.5,800.469Z" transform="translate(-716.535 -278.694)" fill="#2f2e41"/>
  <path id="Path_655" data-name="Path 655" d="M816.627,385.525c8.7,1.21,14.717,5.972,17.169,15.473l15.985-29.513a8.739,8.739,0,0,0-2.785-11.1h0a8.739,8.739,0,0,0-11.87,1.738Z" transform="translate(-729.695 -162.749)" fill="#23d8bd"/>
  <path id="Path_656" data-name="Path 656" d="M721.535,598.943c38.865,17.2,78.64,19.312,119.211,8.221-14.815-57.46-32.308-109.417-32.2-152.1l-39.737-3.426-6.118,9.7a215.188,215.188,0,0,0-29.529,75.317Z" transform="translate(-651.353 -188.841)" fill="#2f2e41"/>
  <ellipse id="Ellipse_171" data-name="Ellipse 171" cx="20.554" cy="20.554" rx="20.554" ry="20.554" transform="translate(114.714 136.739)" fill="#a0616a"/>
  <path id="Path_657" data-name="Path 657" d="M572.249,259.643l25.349,1.37,4.111-22.609-20.553-3.425Z" transform="translate(-459.59 -66.039)" fill="#a0616a"/>
  <path id="Path_658" data-name="Path 658" d="M767.243,425.608l27.771.782,14.021,1.958c6.882-22.734,12.676-45.416-1.37-64.4L791.222,347.5l-24.664-.685-.327.187a19.862,19.862,0,0,0-9.1,23.107C763.252,390,767.184,408.784,767.243,425.608Z" transform="translate(-651.844 -159.381)" fill="#23d8bd"/>
  <path id="Path_659" data-name="Path 659" d="M773.755,503.786l1.723,23.543a5.244,5.244,0,0,0,4.881,4.85h0a5.244,5.244,0,0,0,5.591-5.357l-.548-23.036L768.274,438.7l-.685-39.737-19.183-.685,1.37,45.9Z" transform="translate(-615.878 -173.843)" fill="#a0616a"/>
  <path id="Path_660" data-name="Path 660" d="M772.04,388.579c8.133-3.307,15.729-2.2,22.609,4.8l-.943-33.551a8.739,8.739,0,0,0-7.968-8.212h0a8.739,8.739,0,0,0-9.4,7.448Z" transform="translate(-641.568 -160.719)" fill="#23d8bd"/>
  <path id="Path_661" data-name="Path 661" d="M769.658,384.115h63.031c-14.7-38.936-19.445-75.159,0-106.193-.334-9.321-12.289-17.4-21.574-16.509h0c-10.965,1.054-25.7,9.112-27.755,19.935Z" transform="translate(-677.895 -135.359)" fill="#2f2e41"/>
  <path id="Path_662" data-name="Path 662" d="M475.94,210.453h-2.875V131.694a45.583,45.583,0,0,0-45.583-45.583H260.621a45.583,45.583,0,0,0-45.583,45.583V563.768a45.583,45.583,0,0,0,45.583,45.583h166.86a45.583,45.583,0,0,0,45.583-45.583V266.514h2.875Z" transform="translate(78.601 -86.111)" fill="#3f3d56"/>
  <path id="Path_663" data-name="Path 663" d="M266.574,102.606h21.781a16.173,16.173,0,0,0,14.974,22.281H398.92a16.173,16.173,0,0,0,14.974-22.281h20.343a34.041,34.041,0,0,1,34.041,34.041v431.44a34.041,34.041,0,0,1-34.041,34.041H266.574a34.041,34.041,0,0,1-34.041-34.041V136.647a34.041,34.041,0,0,1,34.041-34.041Z" transform="translate(72.685 -90.747)" fill="#fff"/>
  <rect id="Rectangle_1083" data-name="Rectangle 1083" width="176.863" height="151.7" transform="translate(334.659 79.253)" fill="#e6e6e6"/>
  <rect id="Rectangle_1088" data-name="Rectangle 1088" width="176.863" height="151.7" transform="translate(334.659 292.783)" fill="#e6e6e6"/>
  <ellipse id="Ellipse_172" data-name="Ellipse 172" cx="12.941" cy="12.941" rx="12.941" ry="12.941" transform="translate(403.678 262.587) rotate(180)" fill="#23d8bd" opacity="0.518"/>
  <path id="Path_664" data-name="Path 664" d="M122.445,343.626h5.392v-5.392h2.157v5.392h5.392v2.157h-5.392v5.392h-2.157v-5.392h-5.392Z" transform="translate(519.653 594.35) rotate(180)" fill="#fff"/>
  <ellipse id="Ellipse_173" data-name="Ellipse 173" cx="12.941" cy="12.941" rx="12.941" ry="12.941" transform="translate(471.98 262.587) rotate(180)" fill="#23d8bd" opacity="0.518"/>
  <rect id="Rectangle_1084" data-name="Rectangle 1084" width="2.157" height="12.941" transform="translate(452.568 250.724) rotate(-90)" fill="#fff"/>
  <ellipse id="Ellipse_174" data-name="Ellipse 174" cx="12.941" cy="12.941" rx="12.941" ry="12.941" transform="translate(403.678 476.117) rotate(180)" fill="#23d8bd" opacity="0.518"/>
  <path id="Path_669" data-name="Path 669" d="M122.445,640.626h5.392v-5.392h2.157v5.392h5.392v2.157h-5.392v5.392h-2.157v-5.392h-5.392Z" transform="translate(519.653 1104.88) rotate(180)" fill="#fff"/>
  <ellipse id="Ellipse_175" data-name="Ellipse 175" cx="12.941" cy="12.941" rx="12.941" ry="12.941" transform="translate(471.98 476.117) rotate(180)" fill="#23d8bd" opacity="0.518"/>
  <rect id="Rectangle_1086" data-name="Rectangle 1086" width="2.157" height="12.941" transform="translate(452.568 464.254) rotate(-90)" fill="#fff"/>
  <g id="Group_1568" data-name="Group 1568">
    <g id="Group_182" data-name="Group 182" transform="translate(369.919 313.702)">
      <path id="Path_728" data-name="Path 728" d="M494.5,235.646v2.863a3.809,3.809,0,0,0,3.809,3.809h60.323a3.809,3.809,0,0,0,3.809-3.809v-2.856A357.754,357.754,0,0,1,494.5,235.646Z" transform="translate(-480.912 -229.667)" fill="#c4c4c4" opacity="0.1"/>
      <path id="Path_729" data-name="Path 729" d="M475.172,266.586h0l0-.008a3.807,3.807,0,0,1,.385-.746h0c.046-.069.094-.136.145-.2l.051-.065a3.834,3.834,0,0,1,.486-.506c.039-.034.079-.068.12-.1s.092-.073.14-.107.121-.084.183-.124.1-.062.149-.091q.117-.068.239-.127c.039-.019.078-.036.118-.054q.117-.052.238-.1c.032-.012.064-.025.1-.036q.167-.056.342-.1l.086-.017q.143-.029.289-.048l.106-.013c.125-.012.251-.021.38-.021h69.278a3.82,3.82,0,0,1,3.772,4.333l-.11.792-.542,3.9h0l-4.053,29.18h0l-5.32,38.3-2.974,21.413a3.809,3.809,0,0,1-3.773,3.285h-2.064a3.8,3.8,0,0,0,.214-.825l2-14.424H486.1l-6.522-47.752h62.211l3.988-28.713a402.585,402.585,0,0,1-70.181-.446l-.644-4.725A3.78,3.78,0,0,1,475.172,266.586Z" transform="translate(-465.696 -251.474)" fill="#c4c4c4" opacity="0.1"/>
      <g id="Group_1567" data-name="Group 1567" transform="translate(12)">
        <path id="Path_727" data-name="Path 727" d="M474.949,268.451l.644,4.725,3.983,29.159,6.522,47.752,1.633,11.956a3.808,3.808,0,0,0,3.774,3.294H535a3.809,3.809,0,0,0,3.774-3.285l1.661-11.965,6.633-47.752,4.053-29.18.651-4.7A3.808,3.808,0,0,0,548,264.126H478.723a3.811,3.811,0,0,0-3.774,4.325Z" transform="translate(-465.69 -251.474)" fill="#c4c4c4"/>
        <rect id="Rectangle_1087" data-name="Rectangle 1087" width="67.942" height="12.651" rx="6.326" transform="translate(13.588)" fill="#c4c4c4"/>
        <path id="Path_730" data-name="Path 730" d="M440.309,249.777a403.2,403.2,0,0,0,87.5,0,3.809,3.809,0,0,0,3.809-3.809v-5.033a3.809,3.809,0,0,0-3.809-3.809,358.51,358.51,0,0,1-87.5,0,3.809,3.809,0,0,0-3.809,3.809v5.033A3.809,3.809,0,0,0,440.309,249.777Z" transform="translate(-436.5 -230.8)" fill="#c4c4c4"/>
        <path id="Path_731" data-name="Path 731" d="M485.572,478.905h58.567a2.209,2.209,0,0,0,2.181-1.863l6.327-39.862a2.209,2.209,0,0,0-2.181-2.555H478.823a2.209,2.209,0,0,0-2.178,2.577l6.749,39.862A2.209,2.209,0,0,0,485.572,478.905Z" transform="translate(-466.955 -382.029)" fill="#c4c4c4"/>
      </g>
    </g>
    <g id="Group_181" data-name="Group 181" transform="translate(375.531 311.702)">
      <path id="Path_727-2" data-name="Path 727" d="M474.949,268.451l.644,4.725,3.983,29.159,6.522,47.752,1.633,11.956a3.808,3.808,0,0,0,3.774,3.294H535a3.809,3.809,0,0,0,3.774-3.285l1.661-11.965,6.633-47.752,4.053-29.18.651-4.7A3.808,3.808,0,0,0,548,264.126H478.723a3.811,3.811,0,0,0-3.774,4.325Z" transform="translate(-465.69 -251.474)" fill="#fdd5b3"/>
      <rect id="Rectangle_1087-2" data-name="Rectangle 1087" width="67.942" height="12.651" rx="6.326" transform="translate(13.588)" fill="#2f2e41"/>
      <path id="Path_728-2" data-name="Path 728" d="M494.5,235.646v2.863a3.809,3.809,0,0,0,3.809,3.809h60.323a3.809,3.809,0,0,0,3.809-3.809v-2.856A357.754,357.754,0,0,1,494.5,235.646Z" transform="translate(-480.912 -229.667)" opacity="0.1"/>
      <path id="Path_729-2" data-name="Path 729" d="M475.172,266.586h0l0-.008a3.807,3.807,0,0,1,.385-.746h0c.046-.069.094-.136.145-.2l.051-.065a3.834,3.834,0,0,1,.486-.506c.039-.034.079-.068.12-.1s.092-.073.14-.107.121-.084.183-.124.1-.062.149-.091q.117-.068.239-.127c.039-.019.078-.036.118-.054q.117-.052.238-.1c.032-.012.064-.025.1-.036q.167-.056.342-.1l.086-.017q.143-.029.289-.048l.106-.013c.125-.012.251-.021.38-.021h69.278a3.82,3.82,0,0,1,3.772,4.333l-.11.792-.542,3.9h0l-4.053,29.18h0l-5.32,38.3-2.974,21.413a3.809,3.809,0,0,1-3.773,3.285h-2.064a3.8,3.8,0,0,0,.214-.825l2-14.424H486.1l-6.522-47.752h62.211l3.988-28.713a402.585,402.585,0,0,1-70.181-.446l-.644-4.725A3.78,3.78,0,0,1,475.172,266.586Z" transform="translate(-465.696 -251.474)" opacity="0.1"/>
      <path id="Path_730-2" data-name="Path 730" d="M440.309,249.777a403.2,403.2,0,0,0,87.5,0,3.809,3.809,0,0,0,3.809-3.809v-5.033a3.809,3.809,0,0,0-3.809-3.809,358.51,358.51,0,0,1-87.5,0,3.809,3.809,0,0,0-3.809,3.809v5.033A3.809,3.809,0,0,0,440.309,249.777Z" transform="translate(-436.5 -230.8)" fill="#2f2e41"/>
      <path id="Path_731-2" data-name="Path 731" d="M485.572,478.905h58.567a2.209,2.209,0,0,0,2.181-1.863l6.327-39.862a2.209,2.209,0,0,0-2.181-2.555H478.823a2.209,2.209,0,0,0-2.178,2.577l6.749,39.862A2.209,2.209,0,0,0,485.572,478.905Z" transform="translate(-466.955 -382.029)" fill="#a27e59"/>
    </g>
  </g>
  <g id="Group_1569" data-name="Group 1569" transform="translate(0 -213.53)">
    <g id="Group_182-2" data-name="Group 182" transform="translate(369.919 313.702)">
      <path id="Path_728-3" data-name="Path 728" d="M494.5,235.646v2.863a3.809,3.809,0,0,0,3.809,3.809h60.323a3.809,3.809,0,0,0,3.809-3.809v-2.856A357.754,357.754,0,0,1,494.5,235.646Z" transform="translate(-480.912 -229.667)" fill="#c4c4c4" opacity="0.1"/>
      <path id="Path_729-3" data-name="Path 729" d="M475.172,266.586h0l0-.008a3.807,3.807,0,0,1,.385-.746h0c.046-.069.094-.136.145-.2l.051-.065a3.834,3.834,0,0,1,.486-.506c.039-.034.079-.068.12-.1s.092-.073.14-.107.121-.084.183-.124.1-.062.149-.091q.117-.068.239-.127c.039-.019.078-.036.118-.054q.117-.052.238-.1c.032-.012.064-.025.1-.036q.167-.056.342-.1l.086-.017q.143-.029.289-.048l.106-.013c.125-.012.251-.021.38-.021h69.278a3.82,3.82,0,0,1,3.772,4.333l-.11.792-.542,3.9h0l-4.053,29.18h0l-5.32,38.3-2.974,21.413a3.809,3.809,0,0,1-3.773,3.285h-2.064a3.8,3.8,0,0,0,.214-.825l2-14.424H486.1l-6.522-47.752h62.211l3.988-28.713a402.585,402.585,0,0,1-70.181-.446l-.644-4.725A3.78,3.78,0,0,1,475.172,266.586Z" transform="translate(-465.696 -251.474)" fill="#c4c4c4" opacity="0.1"/>
      <g id="Group_1567-2" data-name="Group 1567" transform="translate(12)">
        <path id="Path_727-3" data-name="Path 727" d="M474.949,268.451l.644,4.725,3.983,29.159,6.522,47.752,1.633,11.956a3.808,3.808,0,0,0,3.774,3.294H535a3.809,3.809,0,0,0,3.774-3.285l1.661-11.965,6.633-47.752,4.053-29.18.651-4.7A3.808,3.808,0,0,0,548,264.126H478.723a3.811,3.811,0,0,0-3.774,4.325Z" transform="translate(-465.69 -251.474)" fill="#c4c4c4"/>
        <rect id="Rectangle_1087-3" data-name="Rectangle 1087" width="67.942" height="12.651" rx="6.326" transform="translate(13.588)" fill="#c4c4c4"/>
        <path id="Path_730-3" data-name="Path 730" d="M440.309,249.777a403.2,403.2,0,0,0,87.5,0,3.809,3.809,0,0,0,3.809-3.809v-5.033a3.809,3.809,0,0,0-3.809-3.809,358.51,358.51,0,0,1-87.5,0,3.809,3.809,0,0,0-3.809,3.809v5.033A3.809,3.809,0,0,0,440.309,249.777Z" transform="translate(-436.5 -230.8)" fill="#c4c4c4"/>
        <path id="Path_731-3" data-name="Path 731" d="M485.572,478.905h58.567a2.209,2.209,0,0,0,2.181-1.863l6.327-39.862a2.209,2.209,0,0,0-2.181-2.555H478.823a2.209,2.209,0,0,0-2.178,2.577l6.749,39.862A2.209,2.209,0,0,0,485.572,478.905Z" transform="translate(-466.955 -382.029)" fill="#c4c4c4"/>
      </g>
    </g>
    <g id="Group_181-2" data-name="Group 181" transform="translate(375.531 311.702)">
      <path id="Path_727-4" data-name="Path 727" d="M474.949,268.451l.644,4.725,3.983,29.159,6.522,47.752,1.633,11.956a3.808,3.808,0,0,0,3.774,3.294H535a3.809,3.809,0,0,0,3.774-3.285l1.661-11.965,6.633-47.752,4.053-29.18.651-4.7A3.808,3.808,0,0,0,548,264.126H478.723a3.811,3.811,0,0,0-3.774,4.325Z" transform="translate(-465.69 -251.474)" fill="#fdd5b3"/>
      <rect id="Rectangle_1087-4" data-name="Rectangle 1087" width="67.942" height="12.651" rx="6.326" transform="translate(13.588)" fill="#2f2e41"/>
      <path id="Path_728-4" data-name="Path 728" d="M494.5,235.646v2.863a3.809,3.809,0,0,0,3.809,3.809h60.323a3.809,3.809,0,0,0,3.809-3.809v-2.856A357.754,357.754,0,0,1,494.5,235.646Z" transform="translate(-480.912 -229.667)" opacity="0.1"/>
      <path id="Path_729-4" data-name="Path 729" d="M475.172,266.586h0l0-.008a3.807,3.807,0,0,1,.385-.746h0c.046-.069.094-.136.145-.2l.051-.065a3.834,3.834,0,0,1,.486-.506c.039-.034.079-.068.12-.1s.092-.073.14-.107.121-.084.183-.124.1-.062.149-.091q.117-.068.239-.127c.039-.019.078-.036.118-.054q.117-.052.238-.1c.032-.012.064-.025.1-.036q.167-.056.342-.1l.086-.017q.143-.029.289-.048l.106-.013c.125-.012.251-.021.38-.021h69.278a3.82,3.82,0,0,1,3.772,4.333l-.11.792-.542,3.9h0l-4.053,29.18h0l-5.32,38.3-2.974,21.413a3.809,3.809,0,0,1-3.773,3.285h-2.064a3.8,3.8,0,0,0,.214-.825l2-14.424H486.1l-6.522-47.752h62.211l3.988-28.713a402.585,402.585,0,0,1-70.181-.446l-.644-4.725A3.78,3.78,0,0,1,475.172,266.586Z" transform="translate(-465.696 -251.474)" opacity="0.1"/>
      <path id="Path_730-4" data-name="Path 730" d="M440.309,249.777a403.2,403.2,0,0,0,87.5,0,3.809,3.809,0,0,0,3.809-3.809v-5.033a3.809,3.809,0,0,0-3.809-3.809,358.51,358.51,0,0,1-87.5,0,3.809,3.809,0,0,0-3.809,3.809v5.033A3.809,3.809,0,0,0,440.309,249.777Z" transform="translate(-436.5 -230.8)" fill="#2f2e41"/>
      <path id="Path_731-4" data-name="Path 731" d="M485.572,478.905h58.567a2.209,2.209,0,0,0,2.181-1.863l6.327-39.862a2.209,2.209,0,0,0-2.181-2.555H478.823a2.209,2.209,0,0,0-2.178,2.577l6.749,39.862A2.209,2.209,0,0,0,485.572,478.905Z" transform="translate(-466.955 -382.029)" fill="#a27e59"/>
    </g>
  </g>
</svg>
