<svg id="Takk_Logo_mobile_footer" data-name="Takk_Logo_mobile_footer" xmlns="http://www.w3.org/2000/svg" width="93.772" height="28" viewBox="0 0 93.772 28">
  <path id="Path_574" data-name="Path 574" d="M31.785,21.613a8.288,8.288,0,0,1-6.1-.1h0a8.845,8.845,0,0,1-5.663-8.253V10.882a.577.577,0,0,1,.576-.576h6.116c4.03,0,4.648-5.9.691-6.627-.029-.007-.057-.015-.094-.022L5.634.067A4.84,4.84,0,0,0,0,4.837a4.79,4.79,0,0,0,1.151,3.13,4.843,4.843,0,0,0,2.9,1.648l3.648.6a.639.639,0,0,1,.54.619A17.66,17.66,0,0,0,25.89,28H28.4A15.158,15.158,0,0,0,40.04,22.576a2.851,2.851,0,0,0-.745-4.293h0a2.834,2.834,0,0,0-3.613.616,8.866,8.866,0,0,1-3.6,2.6Z" transform="translate(0 0)" fill="#a5a5a5"/>
  <g id="Group_153" data-name="Group 153" transform="translate(43.573 6.215)">
    <path id="Path_575" data-name="Path 575" d="M292.45,45.1v10.13a1,1,0,0,1-1,1h-2.031a1,1,0,0,1-1-1V45.1a1,1,0,0,0-1-1H286.1a1,1,0,0,1-1-1V41.67a1,1,0,0,1,1-1h8.66a1,1,0,0,1,1,1v1.424a1,1,0,0,1-1,1h-1.307A1,1,0,0,0,292.45,45.1Z" transform="translate(-285.097 -40.666)" fill="#a5a5a5"/>
    <path id="Path_576" data-name="Path 576" d="M365.462,70.036h1.727a1,1,0,0,1,1,1v8.777a1,1,0,0,1-1,1h-1.727a1,1,0,0,1-1-1v-.49a3.9,3.9,0,0,1-3.245,1.494,5,5,0,0,1-3.758-1.657,5.262,5.262,0,0,1-1.494-3.828,5.771,5.771,0,0,1,1.611-4.179,5.369,5.369,0,0,1,3.758-1.471,4.13,4.13,0,0,1,3.128,1.354h0A1,1,0,0,1,365.462,70.036Zm-4.926,3.5a2.442,2.442,0,0,0-.747,1.7,2.407,2.407,0,0,0,.724,1.7,2.622,2.622,0,0,0,1.681.7,2.4,2.4,0,0,0,1.681-.724,2.265,2.265,0,0,0,.7-1.681,2.309,2.309,0,0,0-.723-1.7,2.367,2.367,0,0,0-3.315,0Z" transform="translate(-345.13 -65.251)" fill="#a5a5a5"/>
    <path id="Path_577" data-name="Path 577" d="M456.522,41.67v5.352a1,1,0,0,0,1.736.687l1.491-1.59a1,1,0,0,1,.732-.317h2.165a1,1,0,0,1,.7,1.722l-2.454,2.4a1,1,0,0,0-.028,1.408l3.041,3.214a1,1,0,0,1-.729,1.694h-2.4a1,1,0,0,1-.75-.336l-1.752-1.967a1,1,0,0,0-1.753.668v.632a1,1,0,0,1-1,1h-1.727a1,1,0,0,1-1-1V41.67a1,1,0,0,1,1-1h1.727A1,1,0,0,1,456.522,41.67Z" transform="translate(-427.158 -40.666)" fill="#a5a5a5"/>
    <path id="Path_578" data-name="Path 578" d="M542.722,41.67v5.352a1,1,0,0,0,1.736.687l1.491-1.59a1,1,0,0,1,.732-.317h2.165a1,1,0,0,1,.7,1.722l-2.454,2.4a1,1,0,0,0-.028,1.408l3.041,3.214a1,1,0,0,1-.729,1.694h-2.4a1,1,0,0,1-.75-.336l-1.752-1.967a1,1,0,0,0-1.753.668v.632a1,1,0,0,1-1,1h-1.727a1,1,0,0,1-1-1V41.67a1,1,0,0,1,1-1h1.727A1,1,0,0,1,542.722,41.67Z" transform="translate(-500.184 -40.666)" fill="#a5a5a5"/>
  </g>
</svg>
